<svg viewBox="0 0 109 22" fill="none" xmlns="http://www.w3.org/2000/svg">
<g id="Livello_1" clip-path="url(#clip0_0_4)">
<path id="Vector" d="M5.86726 0.549571C5.86726 0.429352 5.98648 0.352069 6.08867 0.412178C6.18234 0.472287 6.27602 0.52381 6.36969 0.575332C6.88914 0.858704 7.37453 1.1936 7.81734 1.58002C8.51562 2.19828 9.1032 2.92818 9.55453 3.74395C10.0229 4.57689 10.3891 5.46994 10.6275 6.39735C10.7893 7.0242 10.8574 7.67681 10.8234 8.32943C10.8148 8.4153 10.8319 8.50117 10.8745 8.57845C10.917 8.65574 10.9852 8.71585 11.0618 8.74161C11.1384 8.77596 11.2321 8.77596 11.3087 8.75878C11.3939 8.73302 11.462 8.69009 11.5216 8.62139C12.0581 8.03747 12.7138 6.73224 12.9267 6.27713C12.9693 6.19126 13.0715 6.1655 13.1481 6.21702C13.4973 6.4918 14.4255 7.32475 15.2089 9.06792C15.4729 9.62607 15.6347 10.2358 15.7539 10.8454C15.8731 11.395 15.8902 11.9532 15.8731 12.5113C15.8305 14.3661 15.0897 16.1436 13.8123 17.5433C12.6883 18.7799 11.2066 19.6128 9.57156 19.9048C8.16648 20.171 6.71883 20.0422 5.38187 19.5355C4.93055 19.3466 4.49625 19.1233 4.07898 18.8657C3.45734 18.5222 2.92086 18.0328 2.42695 17.5176C1.62648 16.6159 1.03891 15.5941 0.68125 14.4262C0.527969 13.8423 0.434297 13.2498 0.391719 12.6401C0.340625 11.6612 0.468359 10.6222 0.791953 9.72053C1.28586 8.35519 2.12891 7.03279 3.27852 6.14832C4.33445 5.34973 5.21156 4.40515 5.65437 3.15144C5.8332 2.61905 5.90984 2.06089 5.89281 1.49415C5.89281 1.17642 5.86726 0.858704 5.85023 0.540984L5.86726 0.549571Z" fill="#1D1F20"/>
<path id="Vector_2" d="M5.4754 0.566814C5.45837 0.128875 5.92673 -0.137323 6.2929 0.0773531C6.38657 0.137462 6.47173 0.188985 6.55688 0.23192L6.76126 0.343551C7.16149 0.575401 7.53618 0.8416 7.90235 1.13356L8.08118 1.27954C8.81352 1.92357 9.42665 2.6964 9.89501 3.5551C10.3804 4.41381 10.7551 5.34121 11.0106 6.30296L11.0446 6.43176C11.1979 7.05862 11.2575 7.71123 11.2234 8.35526V8.37243H11.232L11.2405 8.34667C11.4789 8.09765 11.7514 7.65971 12.0069 7.2046C12.2624 6.75807 12.4752 6.32872 12.5774 6.10546L12.603 6.05393C12.7477 5.82208 13.0628 5.71045 13.3268 5.87361L13.3779 5.90795L13.4545 5.96806C13.8888 6.32013 14.783 7.2046 15.5494 8.89624C15.8389 9.49734 16.0007 10.1414 16.1284 10.7596L16.154 10.8713C16.2562 11.4294 16.2732 11.979 16.2647 12.52C16.2221 14.4692 15.4387 16.3498 14.0932 17.8096C12.9095 19.1062 11.3597 19.9821 9.63954 20.2912C8.16634 20.5746 6.64204 20.4372 5.23696 19.9048H5.22844C4.76009 19.7073 4.30876 19.4669 3.87446 19.2007C3.21024 18.8315 2.64821 18.3162 2.14579 17.7924V17.7838C1.31126 16.8478 0.689617 15.7745 0.323445 14.5379V14.5293C0.161648 13.9197 0.0594609 13.3014 0.0253984 12.666H0.00836715C-0.0427266 11.6441 0.0850078 10.5535 0.434148 9.60038C0.945086 8.18352 1.82219 6.79242 3.04844 5.85643C4.07032 5.07501 4.8793 4.19913 5.28805 3.04847C5.44985 2.55901 5.52649 2.04379 5.50946 1.52856C5.50946 1.20226 5.48391 0.92747 5.46688 0.583988L5.4754 0.566814ZM6.08852 0.412248C5.98634 0.352138 5.8586 0.429422 5.86712 0.54964C5.87563 0.867361 5.9097 1.18508 5.9097 1.5028C5.92673 2.06096 5.85009 2.6277 5.67126 3.1601C5.22844 4.4224 4.35134 5.35838 3.2954 6.15698C2.14579 7.03286 1.31126 8.35526 0.808836 9.72919C0.485242 10.6308 0.357508 11.6613 0.408601 12.6488C0.442664 13.2499 0.544851 13.851 0.698133 14.4349C1.04727 15.6113 1.64337 16.6332 2.44384 17.5262C2.93774 18.0414 3.47423 18.5309 4.09587 18.8744C4.51313 19.132 4.94743 19.3553 5.39876 19.5442C6.73571 20.0594 8.18337 20.1882 9.58844 19.9134C11.2234 19.6215 12.7052 18.7885 13.8292 17.552C15.064 16.1952 15.8048 14.4778 15.89 12.6917V12.52C15.907 11.9618 15.89 11.4037 15.7793 10.8541C15.6601 10.2444 15.4983 9.63473 15.2343 9.07657C14.4509 7.3334 13.5227 6.50046 13.1735 6.22567C13.0969 6.16557 12.9947 6.19991 12.9521 6.28578C12.7307 6.7409 12.0835 8.05471 11.547 8.63005C11.4959 8.69874 11.4193 8.75026 11.3341 8.76744C11.249 8.7932 11.1638 8.78461 11.0872 8.75026C11.0191 8.7245 10.9595 8.67298 10.9169 8.61287L10.8999 8.58711C10.8573 8.51841 10.8402 8.44972 10.8402 8.37243V8.33809C10.8743 7.68547 10.8062 7.04144 10.6444 6.406C10.4059 5.4786 10.0398 4.58555 9.57141 3.75261C9.15415 2.98836 8.60915 2.29281 7.97048 1.7003L7.84274 1.58009C7.45102 1.24519 7.02524 0.944644 6.58243 0.687033L6.38657 0.575401C6.2929 0.523879 6.19923 0.46377 6.11407 0.412248H6.08852Z" fill="#FABA0D"/>
<path id="Vector_3" d="M7.07649 10.2529C7.17016 10.3044 7.25531 10.356 7.34047 10.4075C7.60445 10.5535 7.85992 10.7252 8.08985 10.9227C8.4475 11.2404 8.75406 11.6183 8.98399 12.039C9.23094 12.4684 9.40977 12.9235 9.5375 13.4044C9.62266 13.7307 9.65672 14.0656 9.63969 14.4005C9.63969 14.4434 9.63969 14.4863 9.66524 14.5293C9.69078 14.5722 9.72485 14.598 9.76742 14.6151C9.81 14.6323 9.85258 14.6323 9.89516 14.6151C9.93774 14.6066 9.9718 14.5808 10.0059 14.5464C10.3465 14.1858 10.5594 13.7135 10.7467 13.2584C11.2491 13.6706 11.6409 14.1858 11.9048 14.7783C12.0411 15.0703 12.1263 15.3794 12.1859 15.6971C12.2455 15.9805 12.254 16.2639 12.2455 16.5558C12.2199 17.509 11.8367 18.4278 11.181 19.1491C10.602 19.7845 9.83555 20.2139 8.9925 20.3685C8.26867 20.5059 7.5193 20.4372 6.82953 20.1795C6.59961 20.0851 6.36969 19.9649 6.1568 19.8361C5.8332 19.6557 5.5607 19.4067 5.30524 19.1405C4.89649 18.6768 4.58992 18.153 4.41109 17.5433C4.33445 17.2428 4.28336 16.9336 4.26633 16.6245C4.24078 16.1179 4.30891 15.5855 4.4707 15.1218C4.72617 14.4176 5.16047 13.7393 5.74805 13.2842C6.29305 12.872 6.74438 12.3911 6.9743 11.7385C7.06797 11.4637 7.10203 11.1717 7.09352 10.8884C7.09352 10.6823 7.06797 10.4676 7.06797 10.2615L7.07649 10.2529Z" fill="#FABA0D"/>
<path id="Vector_4" d="M59.422 2.16393H62.5388V18.5051H59.422V2.16393Z" fill="var(--fill-0, #FFBA00)"/>
<path id="Vector_5" d="M67.8355 2.16393V5.30679H54.1253V2.16393H67.8355Z" fill="var(--fill-0, #FFBA00)"/>
<path id="Vector_6" d="M22.5153 2.16393H25.632V18.5051H22.5153V2.16393Z" fill="var(--fill-0, #FFBA00)"/>
<path id="Vector_7" d="M31.8655 8.44106V11.5839H25.632V8.44106H31.8655Z" fill="var(--fill-0, #FFBA00)"/>
<path id="Vector_8" d="M31.8655 2.16393H34.9822V18.5051H31.8655V2.16393Z" fill="var(--fill-0, #FFBA00)"/>
<path id="Vector_9" d="M45.2009 18.8743C40.313 18.8743 37.341 15.5769 37.341 10.2272C37.341 4.87744 40.3045 1.53708 45.2009 1.53708C50.0974 1.53708 53.0353 4.8345 53.0353 10.2272C53.0353 15.6198 50.1145 18.8743 45.2009 18.8743ZM40.5003 10.2272C40.5003 13.9625 42.2375 16.2295 45.2094 16.2295C48.1814 16.2295 49.9356 13.9625 49.9356 10.2272C49.9356 6.4918 48.1729 4.1733 45.2094 4.1733C42.246 4.1733 40.5003 6.44028 40.5003 10.2272Z" fill="var(--fill-0, #FFBA00)"/>
<path id="Vector_10" d="M98.9771 22V19.733H100.518C100.91 19.733 101.2 19.6729 101.379 19.5527C101.574 19.4325 101.728 19.2264 101.83 18.9344L102.17 18.0843H101.327L96.9845 6.32865H100.008L103.056 15.3365L105.96 6.32865H108.983L104.231 19.8447C103.959 20.6089 103.576 21.1585 103.073 21.4934C102.588 21.8283 101.906 22 101.029 22H98.9601H98.9771Z" fill="var(--fill-0, #F3EBEA)"/>
<path id="Vector_11" d="M90.0783 18.84C88.8094 18.84 87.7876 18.548 87.0126 17.9727C86.2377 17.3802 85.8545 16.5558 85.8545 15.4996C85.8545 14.4434 86.1781 13.619 86.8338 13.0265C87.481 12.434 88.4773 12.0047 89.8143 11.7471L93.8337 10.9485C93.8337 10.0812 93.6378 9.42857 93.2461 8.99922C92.8544 8.55269 92.2668 8.33802 91.5004 8.33802C90.8021 8.33802 90.2486 8.50976 89.8398 8.84465C89.4481 9.16237 89.1756 9.63466 89.0223 10.2443L86.0674 10.1069C86.3058 8.8103 86.9019 7.81421 87.8387 7.12724C88.7754 6.42311 89.9931 6.07104 91.5004 6.07104C93.229 6.07104 94.5319 6.51756 95.409 7.40203C96.3032 8.26932 96.746 9.52303 96.746 11.1632V15.6112C96.746 15.929 96.7971 16.1522 96.9078 16.2724C97.027 16.3927 97.2058 16.4528 97.4273 16.4528H97.8105V18.5824C97.7168 18.6167 97.572 18.6339 97.3591 18.6511C97.1633 18.6682 96.9589 18.6768 96.746 18.6768C96.2436 18.6768 95.8008 18.5995 95.409 18.445C95.0173 18.2732 94.7108 17.9984 94.4979 17.5948C94.285 17.1827 94.1828 16.6245 94.1828 15.9204L94.4297 16.1007C94.3105 16.6331 94.0465 17.114 93.6378 17.5433C93.2461 17.9555 92.7437 18.2732 92.139 18.5051C91.5344 18.7369 90.8532 18.8486 90.0953 18.8486L90.0783 18.84ZM90.6658 16.7018C91.313 16.7018 91.8751 16.573 92.3434 16.3154C92.8118 16.0578 93.178 15.6971 93.4334 15.242C93.6889 14.7869 93.8166 14.2373 93.8166 13.619V12.9321L90.6829 13.5761C90.0357 13.7135 89.5588 13.9196 89.2778 14.1944C89.0053 14.452 88.869 14.7955 88.869 15.2248C88.869 15.6971 89.0223 16.0664 89.3204 16.324C89.6355 16.5816 90.0868 16.7104 90.6573 16.7104L90.6658 16.7018Z" fill="var(--fill-0, #F3EBEA)"/>
<path id="Vector_12" d="M73.1151 18.5652V2.29274H79.3656C81.2561 2.29274 82.7378 2.74785 83.7937 3.66667C84.8582 4.58548 85.3862 5.84778 85.3862 7.47073C85.3862 8.55269 85.1477 9.49727 84.6623 10.2873C84.1769 11.0687 83.4872 11.6612 82.593 12.0734C81.6989 12.4856 80.6259 12.6916 79.3656 12.6916H76.0701V18.5566H73.1151V18.5652ZM76.0701 10.1069H79.2294C80.2257 10.1069 80.9921 9.88368 81.5201 9.44575C82.0651 8.99922 82.3376 8.3466 82.3376 7.47931C82.3376 6.61202 82.0651 5.98517 81.5201 5.55582C80.9921 5.10929 80.2257 4.89461 79.2294 4.89461H76.0701V10.1155V10.1069Z" fill="var(--fill-0, #F3EBEA)"/>
</g>
<defs>
<clipPath id="clip0_0_4">
<rect width="109" height="22" fill="white"/>
</clipPath>
</defs>
</svg>
